<svg width="131" height="69" viewBox="0 0 131 69" fill="none" xmlns="http://www.w3.org/2000/svg">
<rect y="0.0124512" width="121" height="58" rx="3" fill="#FFFFF1"/>
<mask id="path-2-inside-1_116_64" fill="white">
<path d="M10 13.0125C10 11.3556 11.3431 10.0125 13 10.0125H128C129.657 10.0125 131 11.3556 131 13.0125V59.0125C131 63.983 126.971 68.0125 122 68.0125H13C11.3431 68.0125 10 66.6693 10 65.0125V13.0125Z"/>
</mask>
<path d="M10 13.0125C10 11.3556 11.3431 10.0125 13 10.0125H128C129.657 10.0125 131 11.3556 131 13.0125V59.0125C131 63.983 126.971 68.0125 122 68.0125H13C11.3431 68.0125 10 66.6693 10 65.0125V13.0125Z" fill="#333333" stroke="#333333" stroke-width="8" mask="url(#path-2-inside-1_116_64)"/>
<mask id="path-3-outside-2_116_64" maskUnits="userSpaceOnUse" x="25" y="20.0125" width="91" height="38" fill="black">
<rect fill="white" x="25" y="20.0125" width="91" height="38"/>
<path d="M27.025 39.1275C27.025 36.8175 27.445 34.6725 28.285 32.6925C29.155 30.7124 30.31 28.9875 31.75 27.5175C33.22 26.0475 34.945 24.9074 36.925 24.0974C38.905 23.2574 41.035 22.8524 43.315 22.8824C45.745 22.9124 47.98 23.4074 50.02 24.3674C52.09 25.3274 53.875 26.6474 55.375 28.3274C55.465 28.4474 55.495 28.5824 55.465 28.7324C55.465 28.8824 55.405 29.0024 55.285 29.0924L51.73 32.1075C51.61 32.1974 51.475 32.2424 51.325 32.2424C51.175 32.2124 51.055 32.1374 50.965 32.0174C49.975 30.8774 48.805 29.9774 47.455 29.3174C46.105 28.6274 44.65 28.2974 43.09 28.3274C41.68 28.3575 40.345 28.6725 39.085 29.2724C37.825 29.8424 36.73 30.6374 35.8 31.6574C34.87 32.6474 34.135 33.8024 33.595 35.1224C33.055 36.4424 32.785 37.8524 32.785 39.3525C32.785 40.8525 33.07 42.2625 33.64 43.5825C34.21 44.9025 34.975 46.0575 35.935 47.0475C36.895 48.0375 38.005 48.8175 39.265 49.3875C40.525 49.9275 41.875 50.1975 43.315 50.1975C44.815 50.1675 46.225 49.8225 47.545 49.1625C48.865 48.5025 50.005 47.6025 50.965 46.4625C51.055 46.3425 51.175 46.2825 51.325 46.2825C51.475 46.2525 51.61 46.2975 51.73 46.4175L55.285 49.4325C55.405 49.5225 55.465 49.6425 55.465 49.7925C55.495 49.9425 55.465 50.0775 55.375 50.1975C53.845 51.9075 52.03 53.2575 49.93 54.2475C47.83 55.2075 45.535 55.6725 43.045 55.6425C40.795 55.6425 38.68 55.2225 36.7 54.3825C34.75 53.5125 33.055 52.3425 31.615 50.8725C30.175 49.3725 29.05 47.6175 28.24 45.6075C27.43 43.5975 27.025 41.4375 27.025 39.1275ZM60.5409 24.0525C60.5409 23.9025 60.5859 23.7825 60.6759 23.6924C60.7959 23.5724 60.9309 23.5124 61.0809 23.5124H71.1159C73.2759 23.5124 75.3009 23.9174 77.1909 24.7274C79.0809 25.5374 80.7309 26.6474 82.1409 28.0574C83.5509 29.4374 84.6759 31.0725 85.5159 32.9625C86.3859 34.8225 86.8359 36.8174 86.8659 38.9475C86.9259 41.1675 86.5209 43.2525 85.6509 45.2025C84.8109 47.1525 83.6559 48.8625 82.1859 50.3325C80.7159 51.7725 78.9909 52.9125 77.0109 53.7525C75.0609 54.5925 72.9759 55.0125 70.7559 55.0125H61.0809C60.9309 55.0125 60.7959 54.9675 60.6759 54.8775C60.5859 54.7575 60.5409 54.6225 60.5409 54.4725V24.0525ZM66.3009 49.2975H71.1159C72.4959 49.2975 73.7859 49.0425 74.9859 48.5325C76.2159 47.9925 77.2809 47.2725 78.1809 46.3725C79.1109 45.4425 79.8309 44.3775 80.3409 43.1775C80.8809 41.9475 81.1509 40.6425 81.1509 39.2625C81.1509 37.8824 80.8809 36.5925 80.3409 35.3925C79.8309 34.1625 79.1109 33.0974 78.1809 32.1974C77.2809 31.2674 76.2159 30.5474 74.9859 30.0375C73.7859 29.4975 72.4959 29.2275 71.1159 29.2275H66.3009V49.2975ZM92.6336 23.5124H113.469C113.649 23.5124 113.769 23.5874 113.829 23.7374C113.919 23.8574 113.904 23.9924 113.784 24.1424L110.454 28.5074C110.064 28.9875 109.569 29.2275 108.969 29.2275H97.8536V36.4275H109.104C109.464 36.4275 109.644 36.6075 109.644 36.9675V41.5575C109.644 41.9475 109.464 42.1425 109.104 42.1425H97.8536V54.4725C97.8536 54.8325 97.6586 55.0125 97.2686 55.0125H92.6336C92.4836 55.0125 92.3486 54.9675 92.2286 54.8775C92.1386 54.7575 92.0936 54.6225 92.0936 54.4725V24.0525C92.0936 23.9025 92.1386 23.7825 92.2286 23.6924C92.3486 23.5724 92.4836 23.5124 92.6336 23.5124Z"/>
</mask>
<path d="M27.025 39.1275C27.025 36.8175 27.445 34.6725 28.285 32.6925C29.155 30.7124 30.31 28.9875 31.75 27.5175C33.22 26.0475 34.945 24.9074 36.925 24.0974C38.905 23.2574 41.035 22.8524 43.315 22.8824C45.745 22.9124 47.98 23.4074 50.02 24.3674C52.09 25.3274 53.875 26.6474 55.375 28.3274C55.465 28.4474 55.495 28.5824 55.465 28.7324C55.465 28.8824 55.405 29.0024 55.285 29.0924L51.73 32.1075C51.61 32.1974 51.475 32.2424 51.325 32.2424C51.175 32.2124 51.055 32.1374 50.965 32.0174C49.975 30.8774 48.805 29.9774 47.455 29.3174C46.105 28.6274 44.65 28.2974 43.09 28.3274C41.68 28.3575 40.345 28.6725 39.085 29.2724C37.825 29.8424 36.73 30.6374 35.8 31.6574C34.87 32.6474 34.135 33.8024 33.595 35.1224C33.055 36.4424 32.785 37.8524 32.785 39.3525C32.785 40.8525 33.07 42.2625 33.64 43.5825C34.21 44.9025 34.975 46.0575 35.935 47.0475C36.895 48.0375 38.005 48.8175 39.265 49.3875C40.525 49.9275 41.875 50.1975 43.315 50.1975C44.815 50.1675 46.225 49.8225 47.545 49.1625C48.865 48.5025 50.005 47.6025 50.965 46.4625C51.055 46.3425 51.175 46.2825 51.325 46.2825C51.475 46.2525 51.61 46.2975 51.73 46.4175L55.285 49.4325C55.405 49.5225 55.465 49.6425 55.465 49.7925C55.495 49.9425 55.465 50.0775 55.375 50.1975C53.845 51.9075 52.03 53.2575 49.93 54.2475C47.83 55.2075 45.535 55.6725 43.045 55.6425C40.795 55.6425 38.68 55.2225 36.7 54.3825C34.75 53.5125 33.055 52.3425 31.615 50.8725C30.175 49.3725 29.05 47.6175 28.24 45.6075C27.43 43.5975 27.025 41.4375 27.025 39.1275ZM60.5409 24.0525C60.5409 23.9025 60.5859 23.7825 60.6759 23.6924C60.7959 23.5724 60.9309 23.5124 61.0809 23.5124H71.1159C73.2759 23.5124 75.3009 23.9174 77.1909 24.7274C79.0809 25.5374 80.7309 26.6474 82.1409 28.0574C83.5509 29.4374 84.6759 31.0725 85.5159 32.9625C86.3859 34.8225 86.8359 36.8174 86.8659 38.9475C86.9259 41.1675 86.5209 43.2525 85.6509 45.2025C84.8109 47.1525 83.6559 48.8625 82.1859 50.3325C80.7159 51.7725 78.9909 52.9125 77.0109 53.7525C75.0609 54.5925 72.9759 55.0125 70.7559 55.0125H61.0809C60.9309 55.0125 60.7959 54.9675 60.6759 54.8775C60.5859 54.7575 60.5409 54.6225 60.5409 54.4725V24.0525ZM66.3009 49.2975H71.1159C72.4959 49.2975 73.7859 49.0425 74.9859 48.5325C76.2159 47.9925 77.2809 47.2725 78.1809 46.3725C79.1109 45.4425 79.8309 44.3775 80.3409 43.1775C80.8809 41.9475 81.1509 40.6425 81.1509 39.2625C81.1509 37.8824 80.8809 36.5925 80.3409 35.3925C79.8309 34.1625 79.1109 33.0974 78.1809 32.1974C77.2809 31.2674 76.2159 30.5474 74.9859 30.0375C73.7859 29.4975 72.4959 29.2275 71.1159 29.2275H66.3009V49.2975ZM92.6336 23.5124H113.469C113.649 23.5124 113.769 23.5874 113.829 23.7374C113.919 23.8574 113.904 23.9924 113.784 24.1424L110.454 28.5074C110.064 28.9875 109.569 29.2275 108.969 29.2275H97.8536V36.4275H109.104C109.464 36.4275 109.644 36.6075 109.644 36.9675V41.5575C109.644 41.9475 109.464 42.1425 109.104 42.1425H97.8536V54.4725C97.8536 54.8325 97.6586 55.0125 97.2686 55.0125H92.6336C92.4836 55.0125 92.3486 54.9675 92.2286 54.8775C92.1386 54.7575 92.0936 54.6225 92.0936 54.4725V24.0525C92.0936 23.9025 92.1386 23.7825 92.2286 23.6924C92.3486 23.5724 92.4836 23.5124 92.6336 23.5124Z" fill="#333333" fill-opacity="0.0666667"/>
<path d="M28.285 32.6925L26.454 31.8879L26.4488 31.8996L26.4438 31.9114L28.285 32.6925ZM31.75 27.5175L30.3358 26.1032L30.3285 26.1105L30.3213 26.1179L31.75 27.5175ZM36.925 24.0974L37.6823 25.9485L37.6942 25.9437L37.7061 25.9386L36.925 24.0974ZM43.315 22.8824L43.2887 24.8823L43.2903 24.8823L43.315 22.8824ZM50.02 24.3674L49.1684 26.1771L49.1786 26.1818L50.02 24.3674ZM55.375 28.3274L56.975 27.1274L56.9238 27.0591L56.8669 26.9954L55.375 28.3274ZM55.465 28.7324L53.5038 28.3402L53.465 28.5344V28.7324H55.465ZM55.285 29.0924L54.085 27.4925L54.0371 27.5284L53.9914 27.5671L55.285 29.0924ZM51.73 32.1075L52.93 33.7075L52.9779 33.6715L53.0236 33.6328L51.73 32.1075ZM51.325 32.2424L50.9328 34.2036L51.127 34.2424H51.325V32.2424ZM50.965 32.0174L52.565 30.8174L52.522 30.7602L52.4751 30.7061L50.965 32.0174ZM47.455 29.3174L46.5448 31.0983L46.5606 31.1064L46.5766 31.1142L47.455 29.3174ZM43.09 28.3274L43.0515 26.3278L43.0475 26.3279L43.09 28.3274ZM39.085 29.2724L39.9093 31.0947L39.9272 31.0866L39.9449 31.0782L39.085 29.2724ZM35.8 31.6574L37.2577 33.0268L37.2679 33.016L37.2779 33.005L35.8 31.6574ZM33.595 35.1224L35.4461 35.8797L35.4461 35.8797L33.595 35.1224ZM33.64 43.5825L31.8039 44.3753L31.8039 44.3753L33.64 43.5825ZM35.935 47.0475L37.3708 45.6552L35.935 47.0475ZM39.265 49.3875L38.4407 51.2097L38.4588 51.2179L38.4772 51.2257L39.265 49.3875ZM43.315 50.1975V52.1975H43.335L43.355 52.1971L43.315 50.1975ZM47.545 49.1625L48.4394 50.9513L48.4394 50.9513L47.545 49.1625ZM50.965 46.4625L52.4948 47.7507L52.5312 47.7076L52.565 47.6625L50.965 46.4625ZM51.325 46.2825V48.2825H51.523L51.7172 48.2436L51.325 46.2825ZM51.73 46.4175L50.3158 47.8317L50.3738 47.8897L50.4364 47.9428L51.73 46.4175ZM55.285 49.4325L53.9914 50.9578L54.0371 50.9965L54.085 51.0325L55.285 49.4325ZM55.465 49.7925H53.465V49.9905L53.5038 50.1847L55.465 49.7925ZM55.375 50.1975L56.8655 51.531L56.9231 51.4666L56.975 51.3975L55.375 50.1975ZM49.93 54.2475L50.7615 56.0664L50.7722 56.0615L50.7828 56.0565L49.93 54.2475ZM43.045 55.6425L43.0691 53.6426L43.057 53.6425H43.045V55.6425ZM36.7 54.3825L35.8851 56.2089L35.9019 56.2164L35.9189 56.2236L36.7 54.3825ZM31.615 50.8725L30.1722 52.2575L30.1792 52.2648L30.1863 52.272L31.615 50.8725ZM28.24 45.6075L26.385 46.355L26.385 46.355L28.24 45.6075ZM29.025 39.1275C29.025 37.0657 29.3986 35.1886 30.1262 33.4735L26.4438 31.9114C25.4914 34.1563 25.025 36.5692 25.025 39.1275H29.025ZM30.116 33.497C30.8939 31.7266 31.9161 30.2059 33.1787 28.917L30.3213 26.1179C28.7039 27.769 27.4161 29.6983 26.454 31.8879L30.116 33.497ZM33.1642 28.9317C34.4409 27.655 35.9408 26.661 37.6823 25.9485L36.1677 22.2464C33.9492 23.1539 31.9991 24.4399 30.3358 26.1032L33.1642 28.9317ZM37.7061 25.9386C39.4157 25.2133 41.2689 24.8557 43.2887 24.8823L43.3413 20.8826C40.8011 20.8492 38.3943 21.3016 36.1439 22.2563L37.7061 25.9386ZM43.2903 24.8823C45.4569 24.909 47.407 25.3482 49.1684 26.1771L50.8716 22.5578C48.553 21.4667 46.0331 20.9159 43.3397 20.8826L43.2903 24.8823ZM49.1786 26.1818C51.0045 27.0286 52.5672 28.1857 53.8831 29.6595L56.8669 26.9954C55.1828 25.1092 53.1755 23.6263 50.8615 22.5531L49.1786 26.1818ZM53.775 29.5275C53.6641 29.3795 53.5644 29.1854 53.5126 28.9526C53.4611 28.7207 53.4701 28.5091 53.5038 28.3402L57.4262 29.1247C57.5652 28.4293 57.414 27.7128 56.975 27.1274L53.775 29.5275ZM53.465 28.7324C53.465 28.534 53.5066 28.2896 53.6311 28.0405C53.7557 27.7915 53.9262 27.6115 54.085 27.4925L56.485 30.6924C57.1086 30.2247 57.465 29.512 57.465 28.7324H53.465ZM53.9914 27.5671L50.4364 30.5821L53.0236 33.6328L56.5786 30.6178L53.9914 27.5671ZM50.53 30.5074C50.6326 30.4305 50.7591 30.3604 50.9063 30.3113C51.0535 30.2623 51.1967 30.2424 51.325 30.2424V34.2424C51.9077 34.2424 52.4638 34.0571 52.93 33.7075L50.53 30.5074ZM51.7172 30.2813C51.8597 30.3098 52.0217 30.3672 52.1825 30.4677C52.3438 30.5685 52.4711 30.6922 52.565 30.8174L49.365 33.2175C49.7566 33.7396 50.3108 34.0792 50.9328 34.2036L51.7172 30.2813ZM52.4751 30.7061C51.3101 29.3646 49.9256 28.2991 48.3334 27.5207L46.5766 31.1142C47.6844 31.6558 48.6399 32.3903 49.4549 33.3288L52.4751 30.7061ZM48.3652 27.5366C46.7131 26.6922 44.931 26.2917 43.0515 26.3278L43.1285 30.3271C44.369 30.3032 45.4969 30.5627 46.5448 31.0983L48.3652 27.5366ZM43.0475 26.3279C41.3575 26.3639 39.7436 26.7437 38.2251 27.4667L39.9449 31.0782C40.9464 30.6012 42.0025 30.351 43.1325 30.327L43.0475 26.3279ZM38.2607 27.4502C36.7533 28.1322 35.4357 29.0885 34.3221 30.3099L37.2779 33.005C38.0243 32.1864 38.8967 31.5527 39.9093 31.0947L38.2607 27.4502ZM34.3423 30.2881C33.2366 31.4652 32.3718 32.8303 31.7439 34.3652L35.4461 35.8797C35.8982 34.7746 36.5034 33.8297 37.2577 33.0268L34.3423 30.2881ZM31.7439 34.3652C31.1005 35.9379 30.785 37.6064 30.785 39.3525H34.785C34.785 38.0985 35.0095 36.947 35.4461 35.8797L31.7439 34.3652ZM30.785 39.3525C30.785 41.1131 31.1211 42.7941 31.8039 44.3753L35.4761 42.7896C35.0189 41.7308 34.785 40.5918 34.785 39.3525H30.785ZM31.8039 44.3753C32.4658 45.9081 33.3634 47.2685 34.4992 48.4397L37.3708 45.6552C36.5866 44.8464 35.9542 43.8968 35.4761 42.7896L31.8039 44.3753ZM34.4992 48.4397C35.6347 49.6107 36.9523 50.5364 38.4407 51.2097L40.0893 47.5652C39.0577 47.0985 38.1553 46.4642 37.3708 45.6552L34.4992 48.4397ZM38.4772 51.2257C39.9986 51.8778 41.6181 52.1975 43.315 52.1975V48.1975C42.1319 48.1975 41.0514 47.9771 40.0528 47.5492L38.4772 51.2257ZM43.355 52.1971C45.1468 52.1612 46.8493 51.7464 48.4394 50.9513L46.6506 47.3736C45.6007 47.8985 44.4832 48.1737 43.275 48.1979L43.355 52.1971ZM48.4394 50.9513C50.0056 50.1682 51.3611 49.097 52.4948 47.7507L49.4352 45.1742C48.6489 46.1079 47.7244 46.8367 46.6506 47.3736L48.4394 50.9513ZM52.565 47.6625C52.4459 47.8212 52.266 47.9918 52.0169 48.1163C51.7679 48.2408 51.5234 48.2825 51.325 48.2825V44.2825C50.5455 44.2825 49.8327 44.6388 49.365 45.2624L52.565 47.6625ZM51.7172 48.2436C51.4774 48.2916 51.1936 48.2869 50.9063 48.1911C50.6277 48.0982 50.4334 47.9493 50.3158 47.8317L53.1442 45.0032C52.6122 44.4713 51.8186 44.1441 50.9328 44.3213L51.7172 48.2436ZM50.4364 47.9428L53.9914 50.9578L56.5786 47.9071L53.0236 44.8921L50.4364 47.9428ZM54.085 51.0325C53.9262 50.9134 53.7557 50.7334 53.6311 50.4844C53.5066 50.2353 53.465 49.9909 53.465 49.7925H57.465C57.465 49.0129 57.1086 48.3002 56.485 47.8324L54.085 51.0325ZM53.5038 50.1847C53.4701 50.0158 53.4611 49.8042 53.5126 49.5723C53.5644 49.3395 53.6641 49.1454 53.775 48.9974L56.975 51.3975C57.414 50.8121 57.5652 50.0956 57.4262 49.4002L53.5038 50.1847ZM53.8845 48.8639C52.5352 50.3719 50.9379 51.5612 49.0772 52.4384L50.7828 56.0565C53.1221 54.9537 55.1548 53.443 56.8655 51.531L53.8845 48.8639ZM49.0985 52.4285C47.2875 53.2564 45.2876 53.6693 43.0691 53.6426L43.0209 57.6423C45.7824 57.6756 48.3725 57.1585 50.7615 56.0664L49.0985 52.4285ZM43.045 53.6425C41.0508 53.6425 39.2027 53.2717 37.4811 52.5413L35.9189 56.2236C38.1573 57.1732 40.5392 57.6425 43.045 57.6425V53.6425ZM37.5149 52.556C35.7857 51.7845 34.3011 50.7565 33.0437 49.4729L30.1863 52.272C31.8089 53.9284 33.7143 55.2404 35.8851 56.2089L37.5149 52.556ZM33.0578 49.4874C31.8021 48.1794 30.8137 46.6432 30.095 44.8599L26.385 46.355C27.2863 48.5917 28.5479 50.5655 30.1722 52.2575L33.0578 49.4874ZM30.095 44.8599C29.387 43.1028 29.025 41.1984 29.025 39.1275H25.025C25.025 41.6765 25.473 44.0921 26.385 46.355L30.095 44.8599ZM60.6759 23.6924L59.2616 22.2782L59.2616 22.2782L60.6759 23.6924ZM77.1909 24.7274L76.403 26.5657L76.403 26.5657L77.1909 24.7274ZM82.1409 28.0574L80.7266 29.4717L80.7343 29.4793L80.7419 29.4868L82.1409 28.0574ZM85.5159 32.9625L83.6882 33.7747L83.6961 33.7924L83.7042 33.8098L85.5159 32.9625ZM86.8659 38.9475L84.8661 38.9756L84.8662 38.9886L84.8666 39.0015L86.8659 38.9475ZM85.6509 45.2025L83.8244 44.3876L83.8191 44.3994L83.814 44.4112L85.6509 45.2025ZM82.1859 50.3325L83.5854 51.7612L83.5928 51.754L83.6001 51.7467L82.1859 50.3325ZM77.0109 53.7525L76.2297 51.9113L76.2196 51.9156L77.0109 53.7525ZM60.6759 54.8775L59.0759 56.0775L59.2473 56.306L59.4759 56.4775L60.6759 54.8775ZM66.3009 49.2975H64.3009V51.2975H66.3009V49.2975ZM74.9859 48.5325L75.7681 50.3731L75.779 50.3685L75.7898 50.3637L74.9859 48.5325ZM78.1809 46.3725L79.5951 47.7867L79.5951 47.7867L78.1809 46.3725ZM80.3409 43.1775L78.5096 42.3735L78.5048 42.3843L78.5002 42.3952L80.3409 43.1775ZM80.3409 35.3925L78.4934 36.1585L78.5048 36.186L78.517 36.2132L80.3409 35.3925ZM78.1809 32.1974L76.7437 33.5883L76.7665 33.6119L76.79 33.6347L78.1809 32.1974ZM74.9859 30.0375L74.1651 31.8613L74.1923 31.8735L74.2198 31.8849L74.9859 30.0375ZM66.3009 29.2275V27.2275H64.3009V29.2275H66.3009ZM62.5409 24.0525C62.5409 24.1772 62.522 24.3529 62.4473 24.5522C62.3702 24.7576 62.2484 24.9483 62.0901 25.1067L59.2616 22.2782C58.7302 22.8097 58.5409 23.4739 58.5409 24.0525H62.5409ZM62.0901 25.1067C62.002 25.1947 61.867 25.3017 61.6794 25.3851C61.4872 25.4705 61.2813 25.5124 61.0809 25.5124V21.5124C60.329 21.5124 59.703 21.8369 59.2616 22.2782L62.0901 25.1067ZM61.0809 25.5124H71.1159V21.5124H61.0809V25.5124ZM71.1159 25.5124C73.0189 25.5124 74.7745 25.8678 76.403 26.5657L77.9787 22.8892C75.8273 21.9671 73.5328 21.5124 71.1159 21.5124V25.5124ZM76.403 26.5657C78.0666 27.2787 79.5022 28.2472 80.7266 29.4717L83.5551 26.6432C81.9595 25.0477 80.0951 23.7962 77.9787 22.8892L76.403 26.5657ZM80.7419 29.4868C81.9627 30.6816 82.9458 32.1043 83.6882 33.7747L87.3435 32.1502C86.4059 30.0406 85.139 28.1933 83.5398 26.6281L80.7419 29.4868ZM83.7042 33.8098C84.4497 35.4035 84.8399 37.1181 84.8661 38.9756L88.8657 38.9193C88.8318 36.5168 88.322 34.2414 87.3275 32.1151L83.7042 33.8098ZM84.8666 39.0015C84.9188 40.9349 84.5676 42.7217 83.8244 44.3876L87.4773 46.0173C88.4741 43.7832 88.9329 41.4 88.8651 38.8934L84.8666 39.0015ZM83.814 44.4112C83.072 46.1337 82.0588 47.6311 80.7716 48.9182L83.6001 51.7467C85.253 50.0938 86.5497 48.1712 87.4877 45.9937L83.814 44.4112ZM80.7863 48.9037C79.5029 50.161 77.9902 51.1644 76.2298 51.9113L77.792 55.5936C79.9915 54.6605 81.9288 53.3839 83.5854 51.7612L80.7863 48.9037ZM76.2196 51.9156C74.5309 52.6431 72.7164 53.0125 70.7559 53.0125V57.0125C73.2353 57.0125 75.5908 56.5418 77.8021 55.5893L76.2196 51.9156ZM70.7559 53.0125H61.0809V57.0125H70.7559V53.0125ZM61.0809 53.0125C61.2091 53.0125 61.3523 53.0323 61.4996 53.0813C61.6468 53.1304 61.7732 53.2005 61.8759 53.2775L59.4759 56.4775C59.9421 56.8271 60.4981 57.0125 61.0809 57.0125V53.0125ZM62.2759 53.6775C62.3528 53.7801 62.4229 53.9065 62.472 54.0537C62.5211 54.201 62.5409 54.3442 62.5409 54.4725H58.5409C58.5409 55.0552 58.7262 55.6113 59.0759 56.0775L62.2759 53.6775ZM62.5409 54.4725V24.0525H58.5409V54.4725H62.5409ZM66.3009 51.2975H71.1159V47.2975H66.3009V51.2975ZM71.1159 51.2975C72.7487 51.2975 74.3065 50.9943 75.7681 50.3731L74.2036 46.6918C73.2652 47.0906 72.243 47.2975 71.1159 47.2975V51.2975ZM75.7898 50.3637C77.2346 49.7294 78.5097 48.872 79.5951 47.7867L76.7666 44.9582C76.052 45.6729 75.1971 46.2555 74.1819 46.7012L75.7898 50.3637ZM79.5951 47.7867C80.7048 46.6769 81.5703 45.3979 82.1815 43.9597L78.5002 42.3952C78.0914 43.357 77.5169 44.208 76.7666 44.9582L79.5951 47.7867ZM82.1721 43.9814C82.8265 42.491 83.1509 40.9115 83.1509 39.2625H79.1509C79.1509 40.3734 78.9352 41.4039 78.5096 42.3735L82.1721 43.9814ZM83.1509 39.2625C83.1509 37.6136 82.8265 36.0423 82.1647 34.5717L78.517 36.2132C78.9353 37.1426 79.1509 38.1513 79.1509 39.2625H83.1509ZM82.1883 34.6264C81.5767 33.1513 80.7039 31.8559 79.5717 30.7602L76.79 33.6347C77.5178 34.339 78.085 35.1736 78.4934 36.1585L82.1883 34.6264ZM79.6181 30.8066C78.5224 29.6744 77.227 28.8016 75.7519 28.19L74.2198 31.8849C75.2047 32.2933 76.0394 32.8605 76.7437 33.5883L79.6181 30.8066ZM75.8066 28.2136C74.336 27.5518 72.7647 27.2275 71.1159 27.2275V31.2275C72.227 31.2275 73.2357 31.4431 74.1651 31.8613L75.8066 28.2136ZM71.1159 27.2275H66.3009V31.2275H71.1159V27.2275ZM64.3009 29.2275V49.2975H68.3009V29.2275H64.3009ZM113.829 23.7374L111.972 24.4802L112.07 24.7258L112.229 24.9374L113.829 23.7374ZM113.784 24.1424L112.222 22.8931L112.207 22.9111L112.193 22.9294L113.784 24.1424ZM110.454 28.5074L112.006 29.7686L112.025 29.7449L112.044 29.7205L110.454 28.5074ZM97.8536 29.2275V27.2275H95.8536V29.2275H97.8536ZM97.8536 36.4275H95.8536V38.4275H97.8536V36.4275ZM97.8536 42.1425V40.1425H95.8536V42.1425H97.8536ZM92.2286 54.8775L90.6286 56.0775L90.8 56.306L91.0286 56.4775L92.2286 54.8775ZM92.2286 23.6924L90.8144 22.2782L90.8144 22.2782L92.2286 23.6924ZM92.6336 25.5124H113.469V21.5124H92.6336V25.5124ZM113.469 25.5124C113.285 25.5124 112.967 25.4733 112.634 25.2647C112.284 25.0461 112.076 24.7414 111.972 24.4802L115.686 22.9947C115.521 22.5835 115.223 22.1663 114.754 21.8727C114.3 21.5891 113.833 21.5124 113.469 21.5124V25.5124ZM112.229 24.9374C112.003 24.6365 111.842 24.2006 111.897 23.7078C111.945 23.2738 112.139 22.9968 112.222 22.8931L115.345 25.3918C115.548 25.1381 115.809 24.7186 115.873 24.1496C115.942 23.5218 115.744 22.9584 115.429 22.5375L112.229 24.9374ZM112.193 22.9294L108.863 27.2944L112.044 29.7205L115.374 25.3555L112.193 22.9294ZM108.901 27.2463C108.883 27.2687 108.875 27.2745 108.879 27.271C108.884 27.2671 108.897 27.2577 108.917 27.2478C108.938 27.2379 108.957 27.2319 108.971 27.2288C108.984 27.2259 108.985 27.2275 108.969 27.2275V31.2275C110.192 31.2275 111.25 30.6994 112.006 29.7686L108.901 27.2463ZM108.969 27.2275H97.8536V31.2275H108.969V27.2275ZM95.8536 29.2275V36.4275H99.8536V29.2275H95.8536ZM97.8536 38.4275H109.104V34.4275H97.8536V38.4275ZM109.104 38.4275C108.975 38.4275 108.512 38.394 108.094 37.9767C107.677 37.5593 107.644 37.0957 107.644 36.9675H111.644C111.644 36.4792 111.52 35.7456 110.923 35.1482C110.325 34.5509 109.592 34.4275 109.104 34.4275V38.4275ZM107.644 36.9675V41.5575H111.644V36.9675H107.644ZM107.644 41.5575C107.644 41.4821 107.658 41.0528 108.039 40.6396C108.448 40.1963 108.932 40.1425 109.104 40.1425V44.1425C109.635 44.1425 110.389 43.9911 110.978 43.3528C111.54 42.7446 111.644 42.0228 111.644 41.5575H107.644ZM109.104 40.1425H97.8536V44.1425H109.104V40.1425ZM95.8536 42.1425V54.4725H99.8536V42.1425H95.8536ZM95.8536 54.4725C95.8536 54.3012 95.9074 53.8171 96.3508 53.4078C96.7639 53.0265 97.1933 53.0125 97.2686 53.0125V57.0125C97.7339 57.0125 98.4558 56.9084 99.0639 56.3471C99.7023 55.7578 99.8536 55.0037 99.8536 54.4725H95.8536ZM97.2686 53.0125H92.6336V57.0125H97.2686V53.0125ZM92.6336 53.0125C92.7619 53.0125 92.9051 53.0323 93.0523 53.0813C93.1995 53.1304 93.326 53.2005 93.4286 53.2775L91.0286 56.4775C91.4948 56.8271 92.0509 57.0125 92.6336 57.0125V53.0125ZM93.8286 53.6775C93.9056 53.7801 93.9756 53.9065 94.0247 54.0537C94.0738 54.201 94.0936 54.3442 94.0936 54.4725H90.0936C90.0936 55.0552 90.2789 55.6113 90.6286 56.0775L93.8286 53.6775ZM94.0936 54.4725V24.0525H90.0936V54.4725H94.0936ZM94.0936 24.0525C94.0936 24.1772 94.0747 24.3529 94 24.5522C93.923 24.7576 93.8011 24.9483 93.6428 25.1067L90.8144 22.2782C90.2829 22.8097 90.0936 23.4739 90.0936 24.0525H94.0936ZM93.6428 25.1067C93.5547 25.1947 93.4197 25.3017 93.2321 25.3851C93.0399 25.4705 92.834 25.5124 92.6336 25.5124V21.5124C91.8818 21.5124 91.2558 21.8369 90.8144 22.2782L93.6428 25.1067Z" fill="#FFFFF1" mask="url(#path-3-outside-2_116_64)"/>
<path fill-rule="evenodd" clip-rule="evenodd" d="M119.319 0C119.123 0.182598 119 0.443248 119 0.732602V9.0125C119 9.56479 119.448 10.0125 120 10.0125H128.279C128.569 10.0125 128.829 9.8896 129.012 9.69315L119.319 0Z" fill="#FFFFF1"/>
<path fill-rule="evenodd" clip-rule="evenodd" d="M9.67691 65.7485C9.87554 65.5658 10 65.3037 10 65.0125L10 57.0125C10 56.4602 9.55229 56.0125 9 56.0125H0.723392C0.436272 56.0125 0.177412 56.1335 -0.00496864 56.3273L9.67691 65.7485Z" fill="#FFFFF1"/>
</svg>
