<svg width="131" height="68" viewBox="0 0 131 68" fill="none" xmlns="http://www.w3.org/2000/svg">
<rect width="121" height="58" rx="3" fill="#333333"/>
<mask id="path-2-inside-1_35_26" fill="white">
<path d="M10 13C10 11.3431 11.3431 10 13 10H128C129.657 10 131 11.3431 131 13V59C131 63.9706 126.971 68 122 68H13C11.3431 68 10 66.6569 10 65V13Z"/>
</mask>
<path d="M10 13C10 11.3431 11.3431 10 13 10H128C129.657 10 131 11.3431 131 13V59C131 63.9706 126.971 68 122 68H13C11.3431 68 10 66.6569 10 65V13Z" fill="#FFFFF1" stroke="#333333" stroke-width="8" mask="url(#path-2-inside-1_35_26)"/>
<mask id="path-3-outside-2_35_26" maskUnits="userSpaceOnUse" x="23" y="18" width="95" height="42" fill="black">
<rect fill="white" x="23" y="18" width="95" height="42"/>
<path d="M27.025 39.115C27.025 36.805 27.445 34.66 28.285 32.68C29.155 30.7 30.31 28.975 31.75 27.505C33.22 26.035 34.945 24.895 36.925 24.085C38.905 23.245 41.035 22.84 43.315 22.87C45.745 22.9 47.98 23.395 50.02 24.355C52.09 25.315 53.875 26.635 55.375 28.315C55.465 28.435 55.495 28.57 55.465 28.72C55.465 28.87 55.405 28.99 55.285 29.08L51.73 32.095C51.61 32.185 51.475 32.23 51.325 32.23C51.175 32.2 51.055 32.125 50.965 32.005C49.975 30.865 48.805 29.965 47.455 29.305C46.105 28.615 44.65 28.285 43.09 28.315C41.68 28.345 40.345 28.66 39.085 29.26C37.825 29.83 36.73 30.625 35.8 31.645C34.87 32.635 34.135 33.79 33.595 35.11C33.055 36.43 32.785 37.84 32.785 39.34C32.785 40.84 33.07 42.25 33.64 43.57C34.21 44.89 34.975 46.045 35.935 47.035C36.895 48.025 38.005 48.805 39.265 49.375C40.525 49.915 41.875 50.185 43.315 50.185C44.815 50.155 46.225 49.81 47.545 49.15C48.865 48.49 50.005 47.59 50.965 46.45C51.055 46.33 51.175 46.27 51.325 46.27C51.475 46.24 51.61 46.285 51.73 46.405L55.285 49.42C55.405 49.51 55.465 49.63 55.465 49.78C55.495 49.93 55.465 50.065 55.375 50.185C53.845 51.895 52.03 53.245 49.93 54.235C47.83 55.195 45.535 55.66 43.045 55.63C40.795 55.63 38.68 55.21 36.7 54.37C34.75 53.5 33.055 52.33 31.615 50.86C30.175 49.36 29.05 47.605 28.24 45.595C27.43 43.585 27.025 41.425 27.025 39.115ZM60.5409 24.04C60.5409 23.89 60.5859 23.77 60.6759 23.68C60.7959 23.56 60.9309 23.5 61.0809 23.5H71.1159C73.2759 23.5 75.3009 23.905 77.1909 24.715C79.0809 25.525 80.7309 26.635 82.1409 28.045C83.5509 29.425 84.6759 31.06 85.5159 32.95C86.3859 34.81 86.8359 36.805 86.8659 38.935C86.9259 41.155 86.5209 43.24 85.6509 45.19C84.8109 47.14 83.6559 48.85 82.1859 50.32C80.7159 51.76 78.9909 52.9 77.0109 53.74C75.0609 54.58 72.9759 55 70.7559 55H61.0809C60.9309 55 60.7959 54.955 60.6759 54.865C60.5859 54.745 60.5409 54.61 60.5409 54.46V24.04ZM66.3009 49.285H71.1159C72.4959 49.285 73.7859 49.03 74.9859 48.52C76.2159 47.98 77.2809 47.26 78.1809 46.36C79.1109 45.43 79.8309 44.365 80.3409 43.165C80.8809 41.935 81.1509 40.63 81.1509 39.25C81.1509 37.87 80.8809 36.58 80.3409 35.38C79.8309 34.15 79.1109 33.085 78.1809 32.185C77.2809 31.255 76.2159 30.535 74.9859 30.025C73.7859 29.485 72.4959 29.215 71.1159 29.215H66.3009V49.285ZM92.6336 23.5H113.469C113.649 23.5 113.769 23.575 113.829 23.725C113.919 23.845 113.904 23.98 113.784 24.13L110.454 28.495C110.064 28.975 109.569 29.215 108.969 29.215H97.8536V36.415H109.104C109.464 36.415 109.644 36.595 109.644 36.955V41.545C109.644 41.935 109.464 42.13 109.104 42.13H97.8536V54.46C97.8536 54.82 97.6586 55 97.2686 55H92.6336C92.4836 55 92.3486 54.955 92.2286 54.865C92.1386 54.745 92.0936 54.61 92.0936 54.46V24.04C92.0936 23.89 92.1386 23.77 92.2286 23.68C92.3486 23.56 92.4836 23.5 92.6336 23.5Z"/>
</mask>
<path d="M27.025 39.115C27.025 36.805 27.445 34.66 28.285 32.68C29.155 30.7 30.31 28.975 31.75 27.505C33.22 26.035 34.945 24.895 36.925 24.085C38.905 23.245 41.035 22.84 43.315 22.87C45.745 22.9 47.98 23.395 50.02 24.355C52.09 25.315 53.875 26.635 55.375 28.315C55.465 28.435 55.495 28.57 55.465 28.72C55.465 28.87 55.405 28.99 55.285 29.08L51.73 32.095C51.61 32.185 51.475 32.23 51.325 32.23C51.175 32.2 51.055 32.125 50.965 32.005C49.975 30.865 48.805 29.965 47.455 29.305C46.105 28.615 44.65 28.285 43.09 28.315C41.68 28.345 40.345 28.66 39.085 29.26C37.825 29.83 36.73 30.625 35.8 31.645C34.87 32.635 34.135 33.79 33.595 35.11C33.055 36.43 32.785 37.84 32.785 39.34C32.785 40.84 33.07 42.25 33.64 43.57C34.21 44.89 34.975 46.045 35.935 47.035C36.895 48.025 38.005 48.805 39.265 49.375C40.525 49.915 41.875 50.185 43.315 50.185C44.815 50.155 46.225 49.81 47.545 49.15C48.865 48.49 50.005 47.59 50.965 46.45C51.055 46.33 51.175 46.27 51.325 46.27C51.475 46.24 51.61 46.285 51.73 46.405L55.285 49.42C55.405 49.51 55.465 49.63 55.465 49.78C55.495 49.93 55.465 50.065 55.375 50.185C53.845 51.895 52.03 53.245 49.93 54.235C47.83 55.195 45.535 55.66 43.045 55.63C40.795 55.63 38.68 55.21 36.7 54.37C34.75 53.5 33.055 52.33 31.615 50.86C30.175 49.36 29.05 47.605 28.24 45.595C27.43 43.585 27.025 41.425 27.025 39.115ZM60.5409 24.04C60.5409 23.89 60.5859 23.77 60.6759 23.68C60.7959 23.56 60.9309 23.5 61.0809 23.5H71.1159C73.2759 23.5 75.3009 23.905 77.1909 24.715C79.0809 25.525 80.7309 26.635 82.1409 28.045C83.5509 29.425 84.6759 31.06 85.5159 32.95C86.3859 34.81 86.8359 36.805 86.8659 38.935C86.9259 41.155 86.5209 43.24 85.6509 45.19C84.8109 47.14 83.6559 48.85 82.1859 50.32C80.7159 51.76 78.9909 52.9 77.0109 53.74C75.0609 54.58 72.9759 55 70.7559 55H61.0809C60.9309 55 60.7959 54.955 60.6759 54.865C60.5859 54.745 60.5409 54.61 60.5409 54.46V24.04ZM66.3009 49.285H71.1159C72.4959 49.285 73.7859 49.03 74.9859 48.52C76.2159 47.98 77.2809 47.26 78.1809 46.36C79.1109 45.43 79.8309 44.365 80.3409 43.165C80.8809 41.935 81.1509 40.63 81.1509 39.25C81.1509 37.87 80.8809 36.58 80.3409 35.38C79.8309 34.15 79.1109 33.085 78.1809 32.185C77.2809 31.255 76.2159 30.535 74.9859 30.025C73.7859 29.485 72.4959 29.215 71.1159 29.215H66.3009V49.285ZM92.6336 23.5H113.469C113.649 23.5 113.769 23.575 113.829 23.725C113.919 23.845 113.904 23.98 113.784 24.13L110.454 28.495C110.064 28.975 109.569 29.215 108.969 29.215H97.8536V36.415H109.104C109.464 36.415 109.644 36.595 109.644 36.955V41.545C109.644 41.935 109.464 42.13 109.104 42.13H97.8536V54.46C97.8536 54.82 97.6586 55 97.2686 55H92.6336C92.4836 55 92.3486 54.955 92.2286 54.865C92.1386 54.745 92.0936 54.61 92.0936 54.46V24.04C92.0936 23.89 92.1386 23.77 92.2286 23.68C92.3486 23.56 92.4836 23.5 92.6336 23.5Z" fill="#FFFFF1" fill-opacity="0.0666667"/>
<path d="M28.285 32.68L24.6229 31.0709L24.6126 31.0943L24.6027 31.1178L28.285 32.68ZM31.75 27.505L28.9216 24.6766L28.907 24.6912L28.8926 24.7059L31.75 27.505ZM36.925 24.085L38.4395 27.7872L38.4634 27.7774L38.4872 27.7673L36.925 24.085ZM43.315 22.87L43.2624 26.8697L43.2656 26.8697L43.315 22.87ZM50.02 24.355L48.3168 27.9743L48.3269 27.979L48.3371 27.9837L50.02 24.355ZM55.375 28.315L58.575 25.915L58.4725 25.7783L58.3587 25.6509L55.375 28.315ZM55.465 28.72L51.5427 27.9355L51.465 28.3239V28.72H55.465ZM55.285 29.08L52.885 25.88L52.7891 25.9519L52.6978 26.0294L55.285 29.08ZM51.73 32.095L54.13 35.295L54.2258 35.2231L54.3172 35.1456L51.73 32.095ZM51.325 32.23L50.5405 36.1523L50.9289 36.23H51.325V32.23ZM50.965 32.005L54.165 29.605L54.0791 29.4904L53.9851 29.3823L50.965 32.005ZM47.455 29.305L45.6346 32.8667L45.6662 32.8829L45.6982 32.8985L47.455 29.305ZM43.09 28.315L43.0131 24.3157L43.0049 24.3159L43.09 28.315ZM39.085 29.26L40.7337 32.9044L40.7694 32.8883L40.8047 32.8714L39.085 29.26ZM35.8 31.645L38.7154 34.3837L38.7358 34.362L38.7558 34.34L35.8 31.645ZM33.595 35.11L37.2972 36.6245L37.2972 36.6245L33.595 35.11ZM33.64 43.57L29.9678 45.1557L29.9678 45.1557L33.64 43.57ZM35.935 47.035L38.8066 44.2504L35.935 47.035ZM39.265 49.375L37.6163 53.0194L37.6527 53.0359L37.6893 53.0516L39.265 49.375ZM43.315 50.185V54.185H43.355L43.395 54.1842L43.315 50.185ZM47.545 49.15L49.3339 52.7277V52.7277L47.545 49.15ZM50.965 46.45L54.0246 49.0265L54.0973 48.9403L54.165 48.85L50.965 46.45ZM51.325 46.27V50.27H51.7211L52.1095 50.1923L51.325 46.27ZM51.73 46.405L48.9016 49.2334L49.0176 49.3495L49.1428 49.4556L51.73 46.405ZM55.285 49.42L52.6978 52.4706L52.7892 52.5481L52.885 52.62L55.285 49.42ZM55.465 49.78H51.465V50.1761L51.5427 50.5645L55.465 49.78ZM55.375 50.185L58.356 52.8522L58.4713 52.7233L58.575 52.585L55.375 50.185ZM49.93 54.235L51.593 57.8729L51.6144 57.8631L51.6357 57.8531L49.93 54.235ZM43.045 55.63L43.0932 51.6303L43.0691 51.63H43.045V55.63ZM36.7 54.37L35.0702 58.0229L35.1039 58.0379L35.1378 58.0523L36.7 54.37ZM31.615 50.86L28.7295 53.6301L28.7434 53.6447L28.7576 53.6591L31.615 50.86ZM28.24 45.595L24.5299 47.0901H24.5299L28.24 45.595ZM31.025 39.115C31.025 37.3016 31.3521 35.6923 31.9673 34.2422L24.6027 31.1178C23.5379 33.6277 23.025 36.3084 23.025 39.115H31.025ZM31.9471 34.2891C32.6329 32.7283 33.5223 31.4119 34.6074 30.3041L28.8926 24.7059C27.0977 26.5381 25.6771 28.6717 24.6229 31.0709L31.9471 34.2891ZM34.5784 30.3334C35.6618 29.25 36.9366 28.402 38.4395 27.7872L35.4105 20.3828C32.9534 21.388 30.7782 22.82 28.9216 24.6766L34.5784 30.3334ZM38.4872 27.7673C39.9264 27.1568 41.5029 26.8465 43.2624 26.8697L43.3676 18.8703C40.5671 18.8335 37.8836 19.3332 35.3628 20.4027L38.4872 27.7673ZM43.2656 26.8697C45.1687 26.8932 46.834 27.2765 48.3168 27.9743L51.7232 20.7357C49.1261 19.5135 46.3213 18.9068 43.3644 18.8703L43.2656 26.8697ZM48.3371 27.9837C49.9189 28.7174 51.2594 29.7114 52.3913 30.9791L58.3587 25.6509C56.4906 23.5586 54.2611 21.9126 51.7029 20.7262L48.3371 27.9837ZM52.175 30.715C51.9081 30.3591 51.6788 29.9072 51.5603 29.374C51.4422 28.8428 51.4601 28.3482 51.5427 27.9355L59.3873 29.5045C59.6355 28.2638 59.3631 26.9658 58.575 25.915L52.175 30.715ZM51.465 28.72C51.465 28.2481 51.5632 27.6917 51.8423 27.1336C52.1213 26.5755 52.5075 26.1631 52.885 25.88L57.685 32.28C58.8122 31.4346 59.465 30.129 59.465 28.72H51.465ZM52.6978 26.0294L49.1428 29.0444L54.3172 35.1456L57.8722 32.1306L52.6978 26.0294ZM49.33 28.895C49.9024 28.4657 50.6095 28.23 51.325 28.23V36.23C52.3405 36.23 53.3176 35.9043 54.13 35.295L49.33 28.895ZM52.1095 28.3077C52.4695 28.3797 52.8609 28.5208 53.2425 28.7593C53.6252 28.9984 53.9321 29.2945 54.165 29.605L47.765 34.405C48.4583 35.3293 49.4466 35.9335 50.5405 36.1523L52.1095 28.3077ZM53.9851 29.3823C52.6451 27.8392 51.0461 26.6082 49.2118 25.7115L45.6982 32.8985C46.5639 33.3218 47.3049 33.8908 47.9449 34.6277L53.9851 29.3823ZM49.2754 25.7433C47.3212 24.7444 45.212 24.2735 43.0131 24.3157L43.1669 32.3143C44.088 32.2965 44.8888 32.4856 45.6346 32.8667L49.2754 25.7433ZM43.0049 24.3159C41.0349 24.3578 39.1421 24.8024 37.3653 25.6486L40.8047 32.8714C41.5479 32.5176 42.3251 32.3322 43.1751 32.3141L43.0049 24.3159ZM37.4363 25.6156C35.6815 26.4094 34.1415 27.5271 32.8442 28.95L38.7558 34.34C39.3185 33.7229 39.9685 33.2506 40.7337 32.9044L37.4363 25.6156ZM32.8846 28.9063C31.6032 30.2704 30.6086 31.8456 29.8928 33.5955L37.2972 36.6245C37.6614 35.7343 38.1368 34.9996 38.7154 34.3837L32.8846 28.9063ZM29.8928 33.5955C29.1461 35.4208 28.785 37.3479 28.785 39.34H36.785C36.785 38.3321 36.9639 37.4392 37.2972 36.6245L29.8928 33.5955ZM28.785 39.34C28.785 41.3613 29.1722 43.3134 29.9678 45.1557L37.3123 41.9843C36.9678 41.1866 36.785 40.3187 36.785 39.34H28.785ZM29.9678 45.1557C30.7215 46.9013 31.7518 48.467 33.0634 49.8196L38.8066 44.2504C38.1982 43.623 37.6985 42.8787 37.3122 41.9843L29.9678 45.1557ZM33.0634 49.8196C34.3744 51.1716 35.8996 52.2428 37.6163 53.0194L40.9137 45.7306C40.1104 45.3672 39.4156 44.8784 38.8066 44.2504L33.0634 49.8196ZM37.6893 53.0516C39.4722 53.8157 41.3611 54.185 43.315 54.185V46.185C42.3889 46.185 41.5778 46.0143 40.8407 45.6984L37.6893 53.0516ZM43.395 54.1842C45.4786 54.1425 47.4736 53.6579 49.3339 52.7277L45.7561 45.5723C44.9765 45.9621 44.1514 46.1675 43.235 46.1858L43.395 54.1842ZM49.3339 52.7277C51.1461 51.8216 52.7172 50.5791 54.0246 49.0265L47.9054 43.8735C47.2928 44.6009 46.5839 45.1584 45.7561 45.5723L49.3339 52.7277ZM54.165 48.85C53.8819 49.2275 53.4694 49.6137 52.9114 49.8927C52.3533 50.1718 51.7969 50.27 51.325 50.27V42.27C49.916 42.27 48.6104 42.9228 47.765 44.05L54.165 48.85ZM52.1095 50.1923C51.5547 50.3033 50.916 50.2901 50.2738 50.076C49.6492 49.8678 49.1968 49.5287 48.9016 49.2334L54.5584 43.5766C53.6145 42.6326 52.1623 42.0233 50.5405 42.3477L52.1095 50.1923ZM49.1428 49.4556L52.6978 52.4706L57.8722 46.3694L54.3172 43.3544L49.1428 49.4556ZM52.885 52.62C52.5075 52.3369 52.1213 51.9245 51.8423 51.3664C51.5632 50.8083 51.465 50.2519 51.465 49.78H59.465C59.465 48.371 58.8122 47.0654 57.685 46.22L52.885 52.62ZM51.5427 50.5645C51.4601 50.1518 51.4422 49.6572 51.5603 49.126C51.6788 48.5928 51.9081 48.1409 52.175 47.785L58.575 52.585C59.3631 51.5342 59.6355 50.2362 59.3873 48.9955L51.5427 50.5645ZM52.394 47.5178C51.2255 48.8238 49.8457 49.8525 48.2243 50.6169L51.6357 57.8531C54.2143 56.6375 56.4645 54.9662 58.356 52.8522L52.394 47.5178ZM48.267 50.5971C46.7449 51.2929 45.0402 51.6537 43.0932 51.6303L42.9968 59.6297C46.0298 59.6663 48.9151 59.0971 51.593 57.8729L48.267 50.5971ZM43.045 51.63C41.3065 51.63 39.7254 51.3084 38.2622 50.6877L35.1378 58.0523C37.6346 59.1116 40.2835 59.63 43.045 59.63V51.63ZM38.3298 50.7171C36.8214 50.0441 35.5473 49.1581 34.4724 48.0609L28.7576 53.6591C30.5627 55.5019 32.6786 56.9559 35.0702 58.0229L38.3298 50.7171ZM34.5005 48.0899C33.4291 46.9738 32.5774 45.6565 31.9501 44.0999L24.5299 47.0901C25.5226 49.5535 26.9209 51.7462 28.7295 53.6301L34.5005 48.0899ZM31.9501 44.0999C31.3439 42.5958 31.025 40.9468 31.025 39.115H23.025C23.025 41.9032 23.5161 44.5742 24.5299 47.0901L31.9501 44.0999ZM60.6759 23.68L57.8474 20.8516L57.8474 20.8516L60.6759 23.68ZM77.1909 24.715L75.6152 28.3916H75.6152L77.1909 24.715ZM82.1409 28.045L79.3124 30.8734L79.3276 30.8886L79.343 30.9037L82.1409 28.045ZM85.5159 32.95L81.8606 34.5746L81.8763 34.6098L81.8926 34.6447L85.5159 32.95ZM86.8659 38.935L82.8663 38.9913L82.8666 39.0172L82.8673 39.0431L86.8659 38.935ZM85.6509 45.19L81.9979 43.5602L81.9874 43.5838L81.9772 43.6075L85.6509 45.19ZM82.1859 50.32L84.985 53.1774L84.9997 53.163L85.0143 53.1484L82.1859 50.32ZM77.0109 53.74L75.4487 50.0577L75.4385 50.062L75.4284 50.0663L77.0109 53.74ZM60.6759 54.865L57.4759 57.265L57.8187 57.7221L58.2759 58.065L60.6759 54.865ZM66.3009 49.285H62.3009V53.285H66.3009V49.285ZM74.9859 48.52L76.5504 52.2013L76.5722 52.1921L76.5938 52.1826L74.9859 48.52ZM78.1809 46.36L81.0093 49.1884L78.1809 46.36ZM80.3409 43.165L76.6783 41.557L76.6688 41.5787L76.6595 41.6004L80.3409 43.165ZM80.3409 35.38L76.6459 36.9121L76.6687 36.9671L76.6932 37.0215L80.3409 35.38ZM78.1809 32.185L75.3064 34.9667L75.3521 35.0138L75.3992 35.0594L78.1809 32.185ZM74.9859 30.025L73.3444 33.6727L73.3988 33.6971L73.4538 33.72L74.9859 30.025ZM66.3009 29.215V25.215H62.3009V29.215H66.3009ZM64.5409 24.04C64.5409 24.747 64.2972 25.7155 63.5043 26.5084L57.8474 20.8516C56.8745 21.8245 56.5409 23.033 56.5409 24.04H64.5409ZM63.5043 26.5084C63.2681 26.7446 62.9343 27.0035 62.4917 27.2002C62.0397 27.4011 61.5567 27.5 61.0809 27.5V19.5C59.7272 19.5 58.6102 20.0888 57.8474 20.8516L63.5043 26.5084ZM61.0809 27.5H71.1159V19.5H61.0809V27.5ZM71.1159 27.5C72.762 27.5 74.2481 27.8057 75.6152 28.3916L78.7665 21.0384C76.3537 20.0043 73.7897 19.5 71.1159 19.5V27.5ZM75.6152 28.3916C77.0523 29.0075 78.2735 29.8345 79.3124 30.8734L84.9693 25.2166C83.1882 23.4355 81.1094 22.0425 78.7665 21.0384L75.6152 28.3916ZM79.343 30.9037C80.3745 31.9132 81.2158 33.1238 81.8606 34.5746L89.1711 31.3254C88.1359 28.9962 86.7272 26.9368 84.9387 25.1863L79.343 30.9037ZM81.8926 34.6447C82.5135 35.9721 82.8439 37.4062 82.8663 38.9913L90.8655 38.8787C90.8278 36.2038 90.2582 33.6479 89.1391 31.2553L81.8926 34.6447ZM82.8673 39.0431C82.9118 40.6899 82.6144 42.1784 81.9979 43.5602L89.3038 46.8198C90.4273 44.3016 90.9399 41.6201 90.8644 38.8269L82.8673 39.0431ZM81.9772 43.6075C81.3332 45.1026 80.4616 46.3874 79.3574 47.4916L85.0143 53.1484C86.8501 51.3126 88.2885 49.1774 89.3245 46.7725L81.9772 43.6075ZM79.3867 47.4626C78.2899 48.537 76.9895 49.404 75.4487 50.0577L78.5731 57.4223C80.9922 56.396 83.1418 54.983 84.985 53.1774L79.3867 47.4626ZM75.4284 50.0663C74.0009 50.6813 72.457 51 70.7559 51V59C73.4948 59 76.1208 58.4787 78.5934 57.4137L75.4284 50.0663ZM70.7559 51H61.0809V59H70.7559V51ZM61.0809 51C61.7963 51 62.5035 51.2357 63.0759 51.665L58.2759 58.065C59.0882 58.6743 60.0654 59 61.0809 59V51ZM63.8759 52.465C64.3051 53.0374 64.5409 53.7445 64.5409 54.46H56.5409C56.5409 55.4755 56.8666 56.4526 57.4759 57.265L63.8759 52.465ZM64.5409 54.46V24.04H56.5409V54.46H64.5409ZM66.3009 53.285H71.1159V45.285H66.3009V53.285ZM71.1159 53.285C73.0016 53.285 74.8271 52.9337 76.5504 52.2013L73.4213 44.8387C72.7446 45.1263 71.9901 45.285 71.1159 45.285V53.285ZM76.5938 52.1826C78.2534 51.454 79.7386 50.4591 81.0093 49.1884L75.3524 43.5316C74.8231 44.0609 74.1783 44.506 73.3779 44.8574L76.5938 52.1826ZM81.0093 49.1884C82.2988 47.899 83.3098 46.4058 84.0222 44.7296L76.6595 41.6004C76.352 42.3242 75.923 42.961 75.3524 43.5316L81.0093 49.1884ZM84.0034 44.773C84.7721 43.0221 85.1509 41.1681 85.1509 39.25H77.1509C77.1509 40.0919 76.9896 40.8479 76.6783 41.557L84.0034 44.773ZM85.1509 39.25C85.1509 37.3323 84.7721 35.4797 83.9885 33.7385L76.6932 37.0215C76.9897 37.6803 77.1509 38.4077 77.1509 39.25H85.1509ZM84.0358 33.8479C83.3226 32.1277 82.297 30.602 80.9625 29.3106L75.3992 35.0594C75.9247 35.568 76.3392 36.1723 76.6459 36.9121L84.0358 33.8479ZM81.0553 29.4033C79.7639 28.0689 78.2382 27.0433 76.5179 26.33L73.4538 33.72C74.1936 34.0267 74.7979 34.4411 75.3064 34.9667L81.0553 29.4033ZM76.6273 26.3773C74.8862 25.5938 73.0336 25.215 71.1159 25.215V33.215C71.9581 33.215 72.6856 33.3762 73.3444 33.6727L76.6273 26.3773ZM71.1159 25.215H66.3009V33.215H71.1159V25.215ZM62.3009 29.215V49.285H70.3009V29.215H62.3009ZM113.829 23.725L110.115 25.2106L110.311 25.7018L110.629 26.125L113.829 23.725ZM113.784 24.13L110.66 21.6312L110.631 21.6672L110.603 21.7039L113.784 24.13ZM110.454 28.495L113.558 31.0174L113.597 30.9698L113.634 30.9211L110.454 28.495ZM97.8536 29.215V25.215H93.8536V29.215H97.8536ZM97.8536 36.415H93.8536V40.415H97.8536V36.415ZM97.8536 42.13V38.13H93.8536V42.13H97.8536ZM92.2286 54.865L89.0286 57.265L89.3715 57.7221L89.8286 58.065L92.2286 54.865ZM92.2286 23.68L89.4002 20.8516L89.4002 20.8516L92.2286 23.68ZM92.6336 27.5H113.469V19.5H92.6336V27.5ZM113.469 27.5C113.011 27.5 112.301 27.4029 111.574 26.9482C110.814 26.4735 110.354 25.8079 110.115 25.2106L117.542 22.2394C117.244 21.4921 116.693 20.714 115.814 20.1643C114.966 19.6346 114.106 19.5 113.469 19.5V27.5ZM110.629 26.125C110.132 25.4632 109.792 24.5275 109.909 23.4745C110.013 22.539 110.434 21.9137 110.66 21.6312L116.907 26.6288C117.253 26.1963 117.741 25.4285 117.86 24.358C117.992 23.17 117.615 22.1068 117.029 21.325L110.629 26.125ZM110.603 21.7039L107.273 26.0689L113.634 30.9211L116.964 26.5561L110.603 21.7039ZM107.349 25.9726C107.477 25.8153 107.704 25.601 108.045 25.4357C108.389 25.2688 108.72 25.215 108.969 25.215V33.215C110.815 33.215 112.436 32.3989 113.558 31.0174L107.349 25.9726ZM108.969 25.215H97.8536V33.215H108.969V25.215ZM93.8536 29.215V36.415H101.854V29.215H93.8536ZM97.8536 40.415H109.104V32.415H97.8536V40.415ZM109.104 40.415C108.667 40.415 107.605 40.3031 106.68 39.3784C105.755 38.4537 105.644 37.3916 105.644 36.955H113.644C113.644 36.1584 113.442 34.8263 112.337 33.7216C111.232 32.6169 109.9 32.415 109.104 32.415V40.415ZM105.644 36.955V41.545H113.644V36.955H105.644ZM105.644 41.545C105.644 41.1993 105.717 40.1944 106.569 39.2706C107.478 38.2864 108.581 38.13 109.104 38.13V46.13C109.986 46.13 111.359 45.8761 112.448 44.6969C113.48 43.5781 113.644 42.2807 113.644 41.545H105.644ZM109.104 38.13H97.8536V46.13H109.104V38.13ZM93.8536 42.13V54.46H101.854V42.13H93.8536ZM93.8536 54.46C93.8536 53.9375 94.01 52.8343 94.9942 51.9258C95.918 51.0731 96.9229 51 97.2686 51V59C98.0043 59 99.3017 58.8369 100.42 57.8042C101.6 56.7157 101.854 55.3425 101.854 54.46H93.8536ZM97.2686 51H92.6336V59H97.2686V51ZM92.6336 51C93.3491 51 94.0562 51.2357 94.6286 51.665L89.8286 58.065C90.641 58.6743 91.6181 59 92.6336 59V51ZM95.4286 52.465C95.8579 53.0374 96.0936 53.7445 96.0936 54.46H88.0936C88.0936 55.4755 88.4193 56.4526 89.0286 57.265L95.4286 52.465ZM96.0936 54.46V24.04H88.0936V54.46H96.0936ZM96.0936 24.04C96.0936 24.747 95.85 25.7155 95.057 26.5084L89.4002 20.8516C88.4272 21.8245 88.0936 23.033 88.0936 24.04H96.0936ZM95.057 26.5084C94.8209 26.7446 94.487 27.0035 94.0444 27.2002C93.5924 27.4011 93.1094 27.5 92.6336 27.5V19.5C91.2799 19.5 90.1629 20.0888 89.4002 20.8516L95.057 26.5084Z" fill="black" mask="url(#path-3-outside-2_35_26)"/>
<path fill-rule="evenodd" clip-rule="evenodd" d="M120.319 0.987488C120.123 1.17009 120 1.43074 120 1.72009V9.99999C120 10.5523 120.448 11 121 11H129.279C129.569 11 129.829 10.8771 130.012 10.6806L120.319 0.987488Z" fill="#333333"/>
<path fill-rule="evenodd" clip-rule="evenodd" d="M10.4133 66.7319C10.6093 66.5494 10.7319 66.289 10.7319 66L10.7319 58C10.7319 57.4477 10.2842 57 9.73193 57H1.73193C1.44293 57 1.18257 57.1226 1 57.3186L10.4133 66.7319Z" fill="#333333"/>
</svg>
