<svg width="34" height="34" viewBox="0 0 34 34" fill="none" xmlns="http://www.w3.org/2000/svg">
<path d="M13.874 14.8882C14.4295 14.8882 14.8798 14.4431 14.8798 13.8941L14.8798 4.94674C14.8798 4.39769 14.4295 3.95259 13.874 3.95259C13.3185 3.95259 12.8682 4.39769 12.8682 4.94674L12.8682 12.8999L4.8216 12.8999C4.2661 12.8999 3.81578 13.345 3.81578 13.8941C3.81578 14.4431 4.2661 14.8882 4.8216 14.8882L13.874 14.8882ZM0.288778 1.87246L13.1628 14.597L14.5852 13.1911L1.71122 0.466527L0.288778 1.87246Z" fill="black"/>
<path d="M15.0559 20.0978C15.0559 19.5488 14.6056 19.1037 14.0501 19.1037L4.99774 19.1037C4.44225 19.1037 3.99192 19.5488 3.99192 20.0978C3.99193 20.6469 4.44225 21.092 4.99774 21.092L13.0443 21.092L13.0443 29.0451C13.0443 29.5942 13.4946 30.0393 14.0501 30.0393C14.6056 30.0393 15.0559 29.5942 15.0559 29.0451L15.0559 20.0978ZM1.88737 33.5254L14.7613 20.8008L13.3389 19.3949L0.464926 32.1194L1.88737 33.5254Z" fill="black"/>
<path d="M20.0502 18.8999C19.4947 18.8999 19.0444 19.345 19.0444 19.894L19.0444 28.8413C19.0444 29.3904 19.4947 29.8355 20.0502 29.8355C20.6057 29.8355 21.056 29.3904 21.056 28.8413L21.056 20.8882L29.1026 20.8882C29.6581 20.8882 30.1084 20.4431 30.1084 19.894C30.1084 19.345 29.6581 18.8999 29.1026 18.8999L20.0502 18.8999ZM33.6354 31.9156L20.7614 19.1911L19.339 20.597L32.213 33.3216L33.6354 31.9156Z" fill="black"/>
<path d="M18.8683 13.7246C18.8683 14.2736 19.3186 14.7187 19.8741 14.7187L28.9265 14.7187C29.4819 14.7187 29.9323 14.2736 29.9323 13.7246C29.9323 13.1755 29.4819 12.7304 28.9264 12.7304L20.8799 12.7304L20.8799 4.77724C20.8799 4.22819 20.4296 3.7831 19.8741 3.7831C19.3186 3.7831 18.8683 4.22819 18.8683 4.77724L18.8683 13.7246ZM32.0368 0.297032L19.1629 13.0216L20.5853 14.4275L33.4593 1.70297L32.0368 0.297032Z" fill="black"/>
</svg>
