<svg width="400" height="400" viewBox="0 0 400 400" fill="none" xmlns="http://www.w3.org/2000/svg">
<g clip-path="url(#clip0_44_156)">
<path d="M400 0H0V400H400V0Z" fill="#FFFFF1"/>
<path d="M29.2418 3.70872C167.31 4.8474 305.426 4.8474 396.369 3.72075M396.181 4.21792C394.372 126.225 394.839 248.344 395.965 395.971M395.816 395.895C319.022 395.687 241.597 395.197 28.979 396.148M29.0771 395.915C30.6894 244.303 30.658 91.8721 29.1987 3.85306" stroke="#333333" stroke-opacity="0.2" stroke-width="4.5" stroke-linecap="round" stroke-dasharray="8 12"/>
<path d="M29.6599 97.3363C118.987 97.4085 208.553 97.8937 346.198 97.0597M346.673 97.5729C347.199 195.539 347.155 293.83 346.183 394.162M346.171 394.567C272.606 395.425 199.417 395.197 29.911 394.523M29.5854 394.07C28.9185 276.69 28.8557 158.725 29.9266 97.0637" stroke="#333333" stroke-opacity="0.2" stroke-width="4.5" stroke-linecap="round" stroke-dasharray="8 12"/>
<path d="M31.5789 191.415C92.4772 192.161 153.226 192.265 239.474 191.162M31.5436 191.475C77.59 190.453 123.334 190.669 239.262 191.491M239.086 191.303C238.207 241.673 238.289 291.462 238.905 392.339M239.27 191.335C239.941 247.679 239.835 304.288 239.325 392.436M239.427 392.335C185.943 392.031 132.918 391.991 31.7476 392.351M239.317 392.568C161.186 392.56 83.0309 392.58 31.7397 392.556M31.5671 392.347C32.2654 337.186 31.7358 281.611 31.6064 191.279M31.6024 392.444C32.0065 347.73 31.8966 302.817 31.5122 191.483" stroke="#333333" stroke-opacity="0.2" stroke-width="4" stroke-linecap="round"/>
<path d="M68.0769 220.115C112.001 218.94 156.502 218.952 200.143 220.452M68.0181 219.955C102.806 220.312 137.99 220.123 200.477 219.991M200.112 219.526C200.1 223.84 200.03 227.545 200.01 232.368M200.257 219.887C200.587 222.914 200.069 226.27 199.959 232.861M199.779 232.861C163.041 233.346 125.511 232.785 67.5513 233.262M200.308 233.298C155.137 232.22 110.004 232.472 68.0573 233.162M68.5006 233.763C67.8808 228.736 68.2221 224.818 68.3868 220.757M67.716 232.973C67.8259 229.353 68.0965 225.917 68.3358 220.516" stroke="#333333" stroke-opacity="0.2" stroke-width="4" stroke-linecap="round"/>
<path d="M68.9218 250.467C118.773 249.974 169.339 249.85 200.851 249.99M68.8355 250.283C100.771 250.443 133.111 250.395 200.776 250.106M200.176 250.752C200.541 254.312 201.506 259.36 200.835 263.093M200.827 250.106C200.51 253.779 200.674 256.93 200.894 262.756M200.882 263.562C155.691 262.579 109.81 262.62 68.4667 263.345M200.992 262.976C158.649 263.349 116.565 263.494 68.5295 262.872M69.2435 263.482C68.3608 257.572 68.6982 253.478 68.9532 249.998M68.8276 262.7C68.8041 258.482 68.9806 254.208 68.3647 250.491" stroke="#333333" stroke-opacity="0.2" stroke-width="4" stroke-linecap="round"/>
<path d="M68.6037 281.161C118.243 280.848 166.761 281.413 200.592 281.329M68.945 280.92C107.522 280.764 146.256 281.169 200.772 280.88M201 280.174C200.474 285.166 201.369 289.589 200.231 293.762M201.212 281.157C201.078 283.795 200.537 286.998 201.278 293.69M201.176 294.199C164.235 294.905 127.348 294.496 68.5724 294.139M200.706 293.634C159.645 293.458 118.31 293.57 68.9568 293.73M68.3841 294.596C68.1134 289.837 68.2507 286.088 68.2585 281.65M68.9254 294.031C68.8195 289.204 68.643 285.262 68.5096 281.293" stroke="#333333" stroke-opacity="0.2" stroke-width="4" stroke-linecap="round"/>
<path d="M70.4731 311.465C97.0661 311.004 124.989 310.479 201.904 311.437M70.2731 311.85C110.741 311.369 151.802 311.618 202.532 311.558M201.602 311.814C203.014 316.525 202.418 321.04 202.347 324.765M202.045 311.983C202.767 314.817 202.508 317.443 202.438 324.737M201.888 324.396C151.401 323.518 100.044 324.268 69.9004 324.544M202.281 324.444C169.721 325.085 137.601 325.146 70.2221 324.809M70.7124 325.254C70.1318 322.616 70.4064 319.873 70.5987 312.207M70.2691 324.801C70.5163 320.158 70.3672 315.318 70.2927 311.405" stroke="#333333" stroke-opacity="0.2" stroke-width="4" stroke-linecap="round"/>
<path d="M70.2741 343.086C91.2142 343.271 110.503 343.295 152.842 343.223M70.8076 343.347C96.412 342.95 121.275 343.235 152.218 343.443M151.744 342.894C151.873 347.36 151.606 350.604 151.999 356.598M152.45 343.251C151.905 346.294 152.579 349.417 152.003 356.237M152.195 356.37C132.8 355.155 111.95 355.439 70.2427 356.594M152.619 355.736C136.248 355.311 119.372 355.592 71.1645 355.7M70.6075 356.321C71.3568 351.799 70.7213 346.258 70.3564 343.275M71.1567 355.596C71.2391 350.985 71.0782 345.937 70.5643 343.519" stroke="#333333" stroke-opacity="0.2" stroke-width="4" stroke-linecap="round"/>
<path d="M3.29932 197.832L62.699 198.121L62.5343 224.446L4.43694 223.989" fill="#FFFFF1"/>
<path d="M3.97013 198.566C17.653 197.419 32.4539 198.802 62.397 197.539M3.95052 197.651C15.9466 198.109 28.5271 198.133 62.2636 197.784M61.734 197.784C63.4209 204.945 62.4676 213.966 62.1381 224.126M62.2087 198.129C62.8756 208.164 62.4088 218.22 62.04 223.284M62.1302 223.18C46.9684 223.344 31.6105 223.484 4.10743 223.244M62.2675 224.078C44.0616 224.03 25.7105 224.234 4.27219 223.42M3.18164 222.887C4.01721 216.187 3.97013 209.519 4.54287 197.214M3.92306 223.576C3.90737 215.229 4.00936 206.793 4.29573 197.611" stroke="#333333" stroke-opacity="0.2" stroke-width="4" stroke-linecap="round"/>
<path d="M25.0408 212.48C25.0408 213.293 24.8541 214.04 24.4808 214.72C24.1074 215.387 23.5341 215.927 22.7608 216.34C21.9874 216.753 21.0274 216.96 19.8808 216.96H17.7608V222H14.3408V207.96H19.8808C21.0008 207.96 21.9474 208.153 22.7208 208.54C23.4941 208.927 24.0741 209.46 24.4608 210.14C24.8474 210.82 25.0408 211.6 25.0408 212.48ZM19.6208 214.24C20.2741 214.24 20.7608 214.087 21.0808 213.78C21.4008 213.473 21.5608 213.04 21.5608 212.48C21.5608 211.92 21.4008 211.487 21.0808 211.18C20.7608 210.873 20.2741 210.72 19.6208 210.72H17.7608V214.24H19.6208ZM32.0812 207.96C33.5612 207.96 34.8546 208.253 35.9612 208.84C37.0679 209.427 37.9212 210.253 38.5212 211.32C39.1346 212.373 39.4412 213.593 39.4412 214.98C39.4412 216.353 39.1346 217.573 38.5212 218.64C37.9212 219.707 37.0612 220.533 35.9412 221.12C34.8346 221.707 33.5479 222 32.0812 222H26.8212V207.96H32.0812ZM31.8612 219.04C33.1546 219.04 34.1612 218.687 34.8812 217.98C35.6012 217.273 35.9612 216.273 35.9612 214.98C35.9612 213.687 35.6012 212.68 34.8812 211.96C34.1612 211.24 33.1546 210.88 31.8612 210.88H30.2412V219.04H31.8612ZM50.4925 207.96V210.7H44.7725V213.66H49.0525V216.32H44.7725V222H41.3525V207.96H50.4925Z" fill="#333333" fill-opacity="0.6"/>
</g>
<defs>
<clipPath id="clip0_44_156">
<rect width="400" height="400" fill="white"/>
</clipPath>
</defs>
</svg>
